name rise35.5848peak51.9257fall54.8793.mot
datacolumns 19
datarows 30
range 22.52491100000000 22.57326400000000
endheader
time	ground_force1_vx	ground_force1_vy	ground_force1_vz	ground_force1_px	ground_force1_py	ground_force1_pz	ground_force2_vx	ground_force2_vy	ground_force2_vz	ground_force2_px	ground_force2_py	ground_force2_pz	ground_torque1_x	ground_torque1_y	ground_torque1_z	ground_torque2_x	ground_torque2_y	ground_torque2_z	
22.52491100000000	14.04110500000000	720.34970199999998	36.43868700000000	0.23637600000000	0.00000000000000	0.10502100000000	0.00000000000000	0.00000000000000	0.00000000000000	0.00000000000000	0.00000000000000	0.00000000000000	0.00000000000000	13.94890300000000	0.00000000000000	0.00000000000000	0.00000000000000	0.00000000000000	
22.52657800000000	13.58438200000000	721.08383900000001	36.43715400000000	0.23526200000000	0.00000000000000	0.10503300000000	0.00000000000000	0.00000000000000	0.00000000000000	0.00000000000000	0.00000000000000	0.00000000000000	0.00000000000000	13.98519900000000	0.00000000000000	0.00000000000000	0.00000000000000	0.00000000000000	
22.52824300000000	13.12195000000000	721.83034299999997	36.43859800000000	0.23413300000000	0.00000000000000	0.10504700000000	0.00000000000000	0.00000000000000	0.00000000000000	0.00000000000000	0.00000000000000	0.00000000000000	0.00000000000000	14.02429700000000	0.00000000000000	0.00000000000000	0.00000000000000	0.00000000000000	
22.52990600000000	12.65380400000000	722.58911000000001	36.44294300000000	0.23299100000000	0.00000000000000	0.10506100000000	0.00000000000000	0.00000000000000	0.00000000000000	0.00000000000000	0.00000000000000	0.00000000000000	0.00000000000000	14.06616900000000	0.00000000000000	0.00000000000000	0.00000000000000	0.00000000000000	
22.53158000000000	12.17995600000000	723.36005899999998	36.45011600000000	0.23183700000000	0.00000000000000	0.10507700000000	0.00000000000000	0.00000000000000	0.00000000000000	0.00000000000000	0.00000000000000	0.00000000000000	0.00000000000000	14.11078500000000	0.00000000000000	0.00000000000000	0.00000000000000	0.00000000000000	
22.53325200000000	11.70043500000000	724.14313100000004	36.46005200000000	0.23067100000000	0.00000000000000	0.10509300000000	0.00000000000000	0.00000000000000	0.00000000000000	0.00000000000000	0.00000000000000	0.00000000000000	0.00000000000000	14.15811500000000	0.00000000000000	0.00000000000000	0.00000000000000	0.00000000000000	
22.53490800000000	11.21528900000000	724.93827999999996	36.47268900000000	0.22949500000000	0.00000000000000	0.10510900000000	0.00000000000000	0.00000000000000	0.00000000000000	0.00000000000000	0.00000000000000	0.00000000000000	0.00000000000000	14.20812600000000	0.00000000000000	0.00000000000000	0.00000000000000	0.00000000000000	
22.53657300000000	10.72458300000000	725.74548100000004	36.48797100000000	0.22831000000000	0.00000000000000	0.10512600000000	0.00000000000000	0.00000000000000	0.00000000000000	0.00000000000000	0.00000000000000	0.00000000000000	0.00000000000000	14.26078300000000	0.00000000000000	0.00000000000000	0.00000000000000	0.00000000000000	
22.53824900000000	10.22839500000000	726.56471899999997	36.50584800000000	0.22711800000000	0.00000000000000	0.10514400000000	0.00000000000000	0.00000000000000	0.00000000000000	0.00000000000000	0.00000000000000	0.00000000000000	0.00000000000000	14.31605100000000	0.00000000000000	0.00000000000000	0.00000000000000	0.00000000000000	
22.53991200000000	9.72682100000000	727.39599099999998	36.52627600000000	0.22592000000000	0.00000000000000	0.10516200000000	0.00000000000000	0.00000000000000	0.00000000000000	0.00000000000000	0.00000000000000	0.00000000000000	0.00000000000000	14.37389100000000	0.00000000000000	0.00000000000000	0.00000000000000	0.00000000000000	
22.54157500000000	9.21996900000000	728.23930600000006	36.54921600000000	0.22471600000000	0.00000000000000	0.10518000000000	0.00000000000000	0.00000000000000	0.00000000000000	0.00000000000000	0.00000000000000	0.00000000000000	0.00000000000000	14.43426400000000	0.00000000000000	0.00000000000000	0.00000000000000	0.00000000000000	
22.54325600000000	8.70796300000000	729.09468000000004	36.57463600000000	0.22350900000000	0.00000000000000	0.10519800000000	0.00000000000000	0.00000000000000	0.00000000000000	0.00000000000000	0.00000000000000	0.00000000000000	0.00000000000000	14.49712800000000	0.00000000000000	0.00000000000000	0.00000000000000	0.00000000000000	
22.54490800000000	8.19093500000000	729.96213299999999	36.60250900000000	0.22230000000000	0.00000000000000	0.10521600000000	0.00000000000000	0.00000000000000	0.00000000000000	0.00000000000000	0.00000000000000	0.00000000000000	0.00000000000000	14.56243700000000	0.00000000000000	0.00000000000000	0.00000000000000	0.00000000000000	
22.54657300000000	7.66903300000000	730.84169099999997	36.63281500000000	0.22109000000000	0.00000000000000	0.10523400000000	0.00000000000000	0.00000000000000	0.00000000000000	0.00000000000000	0.00000000000000	0.00000000000000	0.00000000000000	14.63014600000000	0.00000000000000	0.00000000000000	0.00000000000000	0.00000000000000	
22.54825100000000	7.14241200000000	731.73338200000001	36.66553900000000	0.21988000000000	0.00000000000000	0.10525100000000	0.00000000000000	0.00000000000000	0.00000000000000	0.00000000000000	0.00000000000000	0.00000000000000	0.00000000000000	14.70020500000000	0.00000000000000	0.00000000000000	0.00000000000000	0.00000000000000	
22.54991100000000	6.61123900000000	732.63723500000003	36.70067300000000	0.21867100000000	0.00000000000000	0.10526900000000	0.00000000000000	0.00000000000000	0.00000000000000	0.00000000000000	0.00000000000000	0.00000000000000	0.00000000000000	14.77256300000000	0.00000000000000	0.00000000000000	0.00000000000000	0.00000000000000	
22.55157200000000	6.07568800000000	733.55327499999999	36.73821400000000	0.21746500000000	0.00000000000000	0.10528600000000	0.00000000000000	0.00000000000000	0.00000000000000	0.00000000000000	0.00000000000000	0.00000000000000	0.00000000000000	14.84716600000000	0.00000000000000	0.00000000000000	0.00000000000000	0.00000000000000	
22.55325900000000	5.53594000000000	734.48152800000003	36.77816700000000	0.21626300000000	0.00000000000000	0.10530200000000	0.00000000000000	0.00000000000000	0.00000000000000	0.00000000000000	0.00000000000000	0.00000000000000	0.00000000000000	14.92395700000000	0.00000000000000	0.00000000000000	0.00000000000000	0.00000000000000	
22.55491300000000	4.99218400000000	735.42201200000000	36.82053900000000	0.21506600000000	0.00000000000000	0.10531800000000	0.00000000000000	0.00000000000000	0.00000000000000	0.00000000000000	0.00000000000000	0.00000000000000	0.00000000000000	15.00287800000000	0.00000000000000	0.00000000000000	0.00000000000000	0.00000000000000	
22.55657500000000	4.44461700000000	736.37474099999997	36.86534500000000	0.21387600000000	0.00000000000000	0.10533300000000	0.00000000000000	0.00000000000000	0.00000000000000	0.00000000000000	0.00000000000000	0.00000000000000	0.00000000000000	15.08386500000000	0.00000000000000	0.00000000000000	0.00000000000000	0.00000000000000	
22.55824100000000	3.89343600000000	737.33971799999995	36.91260500000000	0.21269200000000	0.00000000000000	0.10534800000000	0.00000000000000	0.00000000000000	0.00000000000000	0.00000000000000	0.00000000000000	0.00000000000000	0.00000000000000	15.16685600000000	0.00000000000000	0.00000000000000	0.00000000000000	0.00000000000000	
22.55991200000000	3.33884600000000	738.31694100000004	36.96234200000000	0.21151600000000	0.00000000000000	0.10536100000000	0.00000000000000	0.00000000000000	0.00000000000000	0.00000000000000	0.00000000000000	0.00000000000000	0.00000000000000	15.25178300000000	0.00000000000000	0.00000000000000	0.00000000000000	0.00000000000000	
22.56157800000000	2.78105600000000	739.30639199999996	37.01458600000000	0.21034800000000	0.00000000000000	0.10537400000000	0.00000000000000	0.00000000000000	0.00000000000000	0.00000000000000	0.00000000000000	0.00000000000000	0.00000000000000	15.33857600000000	0.00000000000000	0.00000000000000	0.00000000000000	0.00000000000000	
22.56325100000000	2.22027500000000	740.30804400000000	37.06936900000000	0.20919000000000	0.00000000000000	0.10538600000000	0.00000000000000	0.00000000000000	0.00000000000000	0.00000000000000	0.00000000000000	0.00000000000000	0.00000000000000	15.42716300000000	0.00000000000000	0.00000000000000	0.00000000000000	0.00000000000000	
22.56491200000000	1.65671700000000	741.32185400000003	37.12672900000000	0.20804300000000	0.00000000000000	0.10539700000000	0.00000000000000	0.00000000000000	0.00000000000000	0.00000000000000	0.00000000000000	0.00000000000000	0.00000000000000	15.51746800000000	0.00000000000000	0.00000000000000	0.00000000000000	0.00000000000000	
22.56657800000000	1.09059500000000	742.34776499999998	37.18670500000000	0.20690600000000	0.00000000000000	0.10540700000000	0.00000000000000	0.00000000000000	0.00000000000000	0.00000000000000	0.00000000000000	0.00000000000000	0.00000000000000	15.60941500000000	0.00000000000000	0.00000000000000	0.00000000000000	0.00000000000000	
22.56824400000000	0.52212800000000	743.38570200000004	37.24934000000000	0.20578000000000	0.00000000000000	0.10541600000000	0.00000000000000	0.00000000000000	0.00000000000000	0.00000000000000	0.00000000000000	0.00000000000000	0.00000000000000	15.70292300000000	0.00000000000000	0.00000000000000	0.00000000000000	0.00000000000000	
22.56990800000000	-0.04847100000000	744.43557099999998	37.31468100000000	0.20466600000000	0.00000000000000	0.10542400000000	0.00000000000000	0.00000000000000	0.00000000000000	0.00000000000000	0.00000000000000	0.00000000000000	0.00000000000000	15.79790900000000	0.00000000000000	0.00000000000000	0.00000000000000	0.00000000000000	
22.57158000000000	-0.62098100000000	745.49725899999999	37.38277500000000	0.20356400000000	0.00000000000000	0.10543100000000	0.00000000000000	0.00000000000000	0.00000000000000	0.00000000000000	0.00000000000000	0.00000000000000	0.00000000000000	15.89428800000000	0.00000000000000	0.00000000000000	0.00000000000000	0.00000000000000	
22.57326400000000	-1.19518800000000	746.57063300000004	37.45367000000000	0.20247400000000	0.00000000000000	0.10543700000000	0.00000000000000	0.00000000000000	0.00000000000000	0.00000000000000	0.00000000000000	0.00000000000000	0.00000000000000	15.99197200000000	0.00000000000000	0.00000000000000	0.00000000000000	0.00000000000000	
